<svg width="32" height="32" viewBox="0 0 32 32" fill="none" xmlns="http://www.w3.org/2000/svg">
<path d="M15.9999 10.3057C14.8736 10.3057 13.7727 10.6396 12.8362 11.2654C11.8998 11.8911 11.1699 12.7804 10.7389 13.821C10.3079 14.8615 10.1951 16.0064 10.4148 17.1111C10.6346 18.2157 11.1769 19.2303 11.9733 20.0267C12.7697 20.8231 13.7843 21.3655 14.889 21.5852C15.9936 21.8049 17.1385 21.6921 18.1791 21.2611C19.2196 20.8301 20.1089 20.1003 20.7347 19.1638C21.3604 18.2274 21.6944 17.1264 21.6944 16.0001C21.6927 14.4904 21.0922 13.043 20.0246 11.9754C18.9571 10.9079 17.5096 10.3074 15.9999 10.3057ZM15.9999 18.2779C15.5494 18.2779 15.109 18.1443 14.7344 17.894C14.3598 17.6438 14.0679 17.288 13.8955 16.8718C13.7231 16.4556 13.678 15.9976 13.7659 15.5558C13.8538 15.1139 14.0707 14.708 14.3893 14.3895C14.7078 14.0709 15.1137 13.854 15.5555 13.7661C15.9974 13.6782 16.4553 13.7233 16.8716 13.8957C17.2878 14.0681 17.6435 14.3601 17.8938 14.7347C18.1441 15.1092 18.2777 15.5496 18.2777 16.0001C18.2777 16.6042 18.0377 17.1836 17.6105 17.6108C17.1834 18.0379 16.604 18.2779 15.9999 18.2779Z" fill="white"/>
<path d="M27.2743 4.72567C25.7964 3.23312 24.0381 2.0473 22.1005 1.23633C20.1629 0.425358 18.0842 0.00521805 15.9837 4.8298e-05C13.8833 -0.00512146 11.8025 0.40478 9.86094 1.20621C7.91937 2.00763 6.15529 3.18478 4.67004 4.67004C3.18478 6.15529 2.00763 7.91937 1.20621 9.86094C0.40478 11.8025 -0.00512146 13.8833 4.8298e-05 15.9837C0.00521805 18.0842 0.425358 20.1629 1.23633 22.1005C2.0473 24.0381 3.23312 25.7964 4.72567 27.2743C6.2036 28.7669 7.96186 29.9527 9.89946 30.7637C11.8371 31.5746 13.9158 31.9948 16.0163 32C18.1167 32.0051 20.1975 31.5952 22.1391 30.7938C24.0806 29.9924 25.8447 28.8152 27.33 27.33C28.8152 25.8447 29.9924 24.0806 30.7938 22.1391C31.5952 20.1975 32.0051 18.1167 32 16.0163C31.9948 13.9158 31.5746 11.8371 30.7637 9.89946C29.9527 7.96186 28.7669 6.2036 27.2743 4.72567ZM16 23.9723C14.4232 23.9723 12.8819 23.5047 11.5709 22.6287C10.2598 21.7527 9.238 20.5076 8.6346 19.0508C8.0312 17.5941 7.87332 15.9912 8.18093 14.4447C8.48855 12.8982 9.24783 11.4777 10.3628 10.3628C11.4777 9.24783 12.8982 8.48855 14.4447 8.18093C15.9912 7.87332 17.5941 8.0312 19.0508 8.6346C20.5076 9.238 21.7527 10.2598 22.6287 11.5709C23.5047 12.8819 23.9723 14.4232 23.9723 16C23.97 18.1137 23.1293 20.1401 21.6347 21.6347C20.1401 23.1293 18.1137 23.97 16 23.9723Z" fill="white"/>
</svg>
