<svg width="51" height="51" viewBox="0 0 51 51" fill="none" xmlns="http://www.w3.org/2000/svg">
<circle cx="25.15" cy="25.15" r="25.15" fill="#1E60D5"/>
<path d="M24.9582 9.78833C19.1601 9.78833 14.4559 14.2656 14.4559 19.78C14.4559 26.1251 21.4574 36.1803 24.0283 39.6533C24.135 39.7999 24.2749 39.9192 24.4365 40.0015C24.5981 40.0837 24.7768 40.1266 24.9582 40.1266C25.1395 40.1266 25.3183 40.0837 25.4799 40.0015C25.6415 39.9192 25.7813 39.7999 25.888 39.6533C28.4589 36.1817 35.4604 26.1302 35.4604 19.78C35.4604 14.2656 30.7563 9.78833 24.9582 9.78833Z" stroke="#7AB2D3" stroke-width="3.34067" stroke-linecap="round" stroke-linejoin="round"/>
<path d="M24.9581 23.7913C26.8915 23.7913 28.4589 22.2239 28.4589 20.2905C28.4589 18.3571 26.8915 16.7898 24.9581 16.7898C23.0247 16.7898 21.4574 18.3571 21.4574 20.2905C21.4574 22.2239 23.0247 23.7913 24.9581 23.7913Z" stroke="#7AB2D3" stroke-width="3.34067" stroke-linecap="round" stroke-linejoin="round"/>
</svg>
