<svg width="51" height="51" viewBox="0 0 51 51" fill="none" xmlns="http://www.w3.org/2000/svg">
<circle cx="25.15" cy="25.15" r="25.15" fill="#1E60D5"/>
<path d="M38.9268 32.9252C37.8333 31.8236 35.1852 30.2158 33.9003 29.5679C32.2272 28.7251 32.0894 28.6562 30.7743 29.6333C29.8971 30.2853 29.3139 30.8678 28.2873 30.6489C27.2606 30.4299 25.0297 29.1953 23.0763 27.2481C21.1229 25.3009 19.8167 23.0053 19.5971 21.9821C19.3774 20.9589 19.9696 20.3826 20.6154 19.5033C21.5257 18.2639 21.4568 18.0573 20.6788 16.3842C20.0722 15.0828 18.4176 12.4594 17.3117 11.3715C16.1288 10.203 16.1288 10.4096 15.3666 10.7263C14.746 10.9874 14.1507 11.3048 13.5881 11.6745C12.4864 12.4064 11.8749 13.0144 11.4474 13.9281C11.0198 14.8418 10.8277 16.9839 13.0358 20.9954C15.244 25.0069 16.7933 27.0581 19.9999 30.2557C23.2064 33.4534 25.6721 35.1727 29.2767 37.1943C33.7358 39.6916 35.4461 39.2048 36.3626 38.7779C37.2791 38.351 37.8898 37.7451 38.6231 36.6434C38.9937 36.0817 39.3118 35.487 39.5733 34.867C39.8907 34.1075 40.0973 34.1075 38.9268 32.9252Z" stroke="#7AB2D3" stroke-width="3.15392" stroke-miterlimit="10"/>
</svg>
